<?xml version="1.0" encoding="UTF-8"?>
<svg xmlns="http://www.w3.org/2000/svg" xmlns:xlink="http://www.w3.org/1999/xlink" width="60px" height="60px" viewBox="0 0 60 60" version="1.1">
<g id="surface1">
<path style=" stroke:none;fill-rule:nonzero;fill:rgb(0%,0%,0%);fill-opacity:1;" d="M 18.75 43.125 C 21.855469 43.125 24.375 45.644531 24.375 48.75 L 24.375 50.625 L 32.871094 44.25 C 33.84375 43.523438 35.027344 43.125 36.246094 43.125 L 52.5 43.125 C 53.53125 43.125 54.375 42.28125 54.375 41.25 L 54.375 7.5 C 54.375 6.46875 53.53125 5.625 52.5 5.625 L 7.5 5.625 C 6.46875 5.625 5.625 6.46875 5.625 7.5 L 5.625 41.25 C 5.625 42.28125 6.46875 43.125 7.5 43.125 Z M 24.375 57.65625 L 24.351562 57.679688 L 23.753906 58.125 L 21.75 59.625 C 21.1875 60.046875 20.425781 60.117188 19.78125 59.800781 C 19.136719 59.484375 18.75 58.839844 18.75 58.125 L 18.75 48.75 L 7.5 48.75 C 3.363281 48.75 0 45.386719 0 41.25 L 0 7.5 C 0 3.363281 3.363281 0 7.5 0 L 52.5 0 C 56.636719 0 60 3.363281 60 7.5 L 60 41.25 C 60 45.386719 56.636719 48.75 52.5 48.75 L 36.246094 48.75 Z M 24.375 57.65625 "/>
</g>
</svg>
