<?xml version="1.0" encoding="UTF-8"?>
<svg xmlns="http://www.w3.org/2000/svg" xmlns:xlink="http://www.w3.org/1999/xlink" width="60px" height="60px" viewBox="0 0 60 60" version="1.1">
<g id="surface1">
<path style=" stroke:none;fill-rule:nonzero;fill:rgb(100%,0%,0%);fill-opacity:1;" d="M 9.828125 0 L 50.171875 0 C 55.601562 0 60 4.398438 60 9.828125 L 60 50.171875 C 60 55.601562 55.601562 60 50.171875 60 L 9.828125 60 C 4.398438 60 0 55.601562 0 50.171875 L 0 9.828125 C 0 4.398438 4.398438 0 9.828125 0 Z M 9.828125 0 "/>
<path style=" stroke:none;fill-rule:nonzero;fill:rgb(100%,100%,100%);fill-opacity:1;" d="M 29.988281 15.84375 C 29.988281 15.84375 17.34375 15.84375 14.171875 16.667969 C 12.472656 17.144531 11.070312 18.542969 10.597656 20.265625 C 9.773438 23.441406 9.773438 30.011719 9.773438 30.011719 C 9.773438 30.011719 9.773438 36.609375 10.597656 39.734375 C 11.070312 41.457031 12.445312 42.832031 14.171875 43.304688 C 17.367188 44.15625 29.988281 44.15625 29.988281 44.15625 C 29.988281 44.15625 42.65625 44.15625 45.828125 43.332031 C 47.554688 42.855469 48.929688 41.507812 49.378906 39.757812 C 50.226562 36.609375 50.226562 30.039062 50.226562 30.039062 C 50.226562 30.039062 50.253906 23.441406 49.378906 20.265625 C 48.929688 18.542969 47.554688 17.167969 45.828125 16.71875 C 42.65625 15.84375 29.988281 15.84375 29.988281 15.84375 Z M 25.964844 23.941406 L 36.484375 30.011719 L 25.964844 36.058594 Z M 25.964844 23.941406 "/>
</g>
</svg>
