<?xml version="1.0" encoding="UTF-8"?>
<svg xmlns="http://www.w3.org/2000/svg" xmlns:xlink="http://www.w3.org/1999/xlink" width="60px" height="60px" viewBox="0 0 60 59" version="1.1">
<g id="surface1">
<path style=" stroke:none;fill-rule:nonzero;fill:rgb(34.509804%,39.607843%,94.901961%);fill-opacity:1;" d="M 20.320312 11.8125 C 19.34375 11.84375 18.367188 11.914062 17.941406 11.988281 C 17.46875 12.074219 16.863281 12.242188 16.398438 12.429688 C 15.273438 12.871094 14.230469 13.671875 13.492188 14.648438 C 12.886719 15.449219 12.511719 16.261719 12.265625 17.316406 C 12.140625 17.839844 12.101562 18.234375 12.023438 19.730469 C 12.003906 20.097656 11.992188 38.222656 12.011719 38.90625 C 12.039062 39.921875 12.109375 40.886719 12.1875 41.328125 C 12.265625 41.773438 12.457031 42.429688 12.636719 42.871094 C 13.09375 43.984375 13.902344 45.007812 14.898438 45.734375 C 15.710938 46.328125 16.539062 46.695312 17.609375 46.941406 C 18.144531 47.0625 18.542969 47.101562 20.0625 47.179688 C 20.4375 47.199219 38.871094 47.207031 39.5625 47.1875 C 40.597656 47.160156 41.578125 47.09375 42.03125 47.015625 C 42.480469 46.941406 43.152344 46.75 43.597656 46.574219 C 44.238281 46.320312 44.855469 45.953125 45.421875 45.488281 C 45.714844 45.246094 46.117188 44.839844 46.367188 44.535156 C 47.035156 43.710938 47.472656 42.804688 47.734375 41.683594 C 47.859375 41.160156 47.898438 40.769531 47.976562 39.269531 C 47.996094 38.902344 48.007812 20.75 47.988281 20.082031 C 47.960938 19.070312 47.890625 18.109375 47.8125 17.671875 C 47.734375 17.226562 47.542969 16.570312 47.363281 16.128906 C 46.859375 14.902344 45.949219 13.8125 44.8125 13.0625 C 44.175781 12.648438 43.585938 12.382812 42.816406 12.167969 C 42.054688 11.957031 41.695312 11.910156 39.9375 11.820312 C 39.625 11.804688 20.84375 11.796875 20.320312 11.8125 Z M 26.378906 19.875 C 26.4375 19.925781 26.816406 20.644531 26.992188 21.046875 C 27.03125 21.128906 27.0625 21.199219 27.066406 21.199219 C 27.066406 21.203125 27.15625 21.191406 27.265625 21.175781 C 27.71875 21.109375 28.25 21.058594 28.828125 21.019531 C 29.082031 21.003906 29.308594 21 30 21 C 30.691406 21 30.917969 21.003906 31.171875 21.019531 C 31.75 21.058594 32.28125 21.109375 32.734375 21.175781 C 32.84375 21.191406 32.933594 21.203125 32.933594 21.199219 C 32.9375 21.199219 32.96875 21.128906 33.007812 21.046875 C 33.113281 20.804688 33.3125 20.40625 33.464844 20.128906 C 33.636719 19.816406 33.617188 19.832031 33.808594 19.867188 C 34.1875 19.945312 35.042969 20.152344 35.742188 20.335938 C 37.488281 20.800781 38.667969 21.203125 38.90625 21.414062 C 38.984375 21.484375 39.320312 21.988281 39.695312 22.609375 C 40.980469 24.722656 41.871094 26.886719 42.375 29.121094 C 42.84375 31.191406 42.980469 33.273438 42.800781 35.566406 C 42.769531 35.957031 42.785156 35.914062 42.617188 36.039062 C 42.066406 36.4375 41.261719 36.949219 40.589844 37.324219 C 39.351562 38.023438 38.132812 38.554688 36.730469 39.011719 C 36.230469 39.175781 36.253906 39.171875 36.175781 39.074219 C 36.085938 38.957031 35.824219 38.582031 35.695312 38.386719 C 35.351562 37.863281 34.882812 37.042969 34.882812 36.96875 C 34.882812 36.949219 34.894531 36.929688 34.90625 36.917969 C 34.921875 36.90625 35.035156 36.855469 35.164062 36.804688 C 35.644531 36.613281 36.207031 36.351562 36.671875 36.101562 C 36.941406 35.957031 36.984375 35.929688 36.984375 35.890625 C 36.984375 35.851562 36.972656 35.84375 36.796875 35.710938 C 36.710938 35.644531 36.617188 35.574219 36.589844 35.546875 C 36.5625 35.523438 36.527344 35.507812 36.515625 35.507812 C 36.503906 35.507812 36.433594 35.535156 36.359375 35.566406 C 34.746094 36.277344 32.992188 36.726562 31.277344 36.867188 C 30.800781 36.90625 30.589844 36.914062 29.992188 36.914062 C 29.398438 36.914062 29.210938 36.90625 28.722656 36.867188 C 27.007812 36.726562 25.25 36.277344 23.640625 35.566406 C 23.566406 35.535156 23.496094 35.507812 23.484375 35.507812 C 23.472656 35.507812 23.4375 35.523438 23.410156 35.546875 C 23.382812 35.574219 23.289062 35.644531 23.203125 35.710938 C 23.027344 35.84375 23.015625 35.851562 23.015625 35.890625 C 23.015625 35.929688 23.058594 35.957031 23.328125 36.101562 C 23.792969 36.351562 24.355469 36.613281 24.835938 36.804688 C 24.964844 36.855469 25.078125 36.90625 25.09375 36.917969 C 25.105469 36.929688 25.117188 36.949219 25.117188 36.96875 C 25.117188 36.996094 24.980469 37.261719 24.820312 37.542969 C 24.597656 37.941406 24.273438 38.445312 24.015625 38.808594 C 23.816406 39.089844 23.78125 39.132812 23.746094 39.144531 C 23.691406 39.164062 22.710938 38.835938 22.054688 38.582031 C 20.671875 38.039062 19.339844 37.347656 18.089844 36.523438 C 17.757812 36.304688 17.347656 36.015625 17.28125 35.960938 L 17.226562 35.910156 L 17.199219 35.570312 C 17.109375 34.394531 17.097656 33.375 17.167969 32.308594 C 17.394531 28.753906 18.519531 25.398438 20.578125 22.167969 C 20.824219 21.78125 21.023438 21.484375 21.070312 21.4375 C 21.253906 21.25 22.105469 20.9375 23.496094 20.546875 C 24.375 20.296875 25.429688 20.03125 26.140625 19.878906 C 26.3125 19.839844 26.34375 19.839844 26.378906 19.875 Z M 26.378906 19.875 "/>
<path style=" stroke:none;fill-rule:nonzero;fill:rgb(34.509804%,39.607843%,94.901961%);fill-opacity:1;" d="M 25.46875 27.933594 C 25.230469 27.964844 25.042969 28.019531 24.832031 28.121094 C 24.21875 28.40625 23.761719 28.949219 23.542969 29.648438 C 23.46875 29.886719 23.4375 30.097656 23.425781 30.378906 C 23.414062 30.847656 23.503906 31.253906 23.703125 31.664062 C 23.871094 32.003906 24.078125 32.265625 24.355469 32.496094 C 25.015625 33.042969 25.878906 33.15625 26.636719 32.796875 C 27.398438 32.4375 27.925781 31.660156 28.019531 30.753906 C 28.042969 30.558594 28.027344 30.121094 28 29.960938 C 27.824219 29.058594 27.273438 28.359375 26.488281 28.058594 C 26.359375 28.007812 26.121094 27.945312 25.980469 27.929688 C 25.859375 27.917969 25.574219 27.917969 25.46875 27.933594 Z M 25.46875 27.933594 "/>
<path style=" stroke:none;fill-rule:nonzero;fill:rgb(34.509804%,39.607843%,94.901961%);fill-opacity:1;" d="M 34.003906 27.933594 C 33.878906 27.945312 33.632812 28.007812 33.511719 28.058594 C 32.691406 28.375 32.113281 29.140625 31.984375 30.078125 C 31.964844 30.226562 31.964844 30.609375 31.980469 30.773438 C 32.058594 31.460938 32.402344 32.113281 32.910156 32.515625 C 33.429688 32.929688 34.0625 33.089844 34.691406 32.960938 C 34.832031 32.933594 35.046875 32.859375 35.191406 32.789062 C 35.671875 32.550781 36.046875 32.171875 36.296875 31.664062 C 36.476562 31.292969 36.558594 30.964844 36.574219 30.539062 C 36.582031 30.191406 36.542969 29.910156 36.433594 29.582031 C 36.160156 28.765625 35.53125 28.160156 34.757812 27.972656 C 34.554688 27.921875 34.222656 27.90625 34.003906 27.933594 Z M 34.003906 27.933594 "/>
</g>
</svg>
