<svg width="80" height="80" viewBox="0 0 80 80" fill="none" xmlns="http://www.w3.org/2000/svg">
<path d="M33.8125 22.0919C36.4346 15.5553 37.7456 12.2869 40 12.2869C42.2544 12.2869 43.5654 15.5553 46.1874 22.0919L46.3095 22.3963C47.7908 26.0892 48.5315 27.9356 50.041 29.0579C51.5505 30.1802 53.532 30.3577 57.4951 30.7126L58.2115 30.7768C64.6976 31.3577 67.9406 31.6481 68.6345 33.7114C69.3284 35.7747 66.92 37.9658 62.1032 42.3481L60.4956 43.8107C58.0573 46.0291 56.8381 47.1383 56.2698 48.592C56.1638 48.8632 56.0757 49.141 56.0061 49.4237C55.6325 50.9393 55.9896 52.5484 56.7036 55.7666L56.9258 56.7684C58.2381 62.6828 58.8942 65.64 57.7486 66.9156C57.3205 67.3922 56.7642 67.7354 56.1461 67.9041C54.4921 68.3554 52.1438 66.4419 47.4473 62.6149C44.3634 60.102 42.8215 58.8455 41.0511 58.5628C40.3548 58.4516 39.6452 58.4516 38.9488 58.5628C37.1785 58.8455 35.6365 60.102 32.5526 62.6149C27.8561 66.4419 25.5079 68.3554 23.8539 67.9041C23.2358 67.7354 22.6794 67.3922 22.2514 66.9156C21.1058 65.64 21.7619 62.6828 23.0741 56.7684L23.2964 55.7666C24.0104 52.5484 24.3674 50.9393 23.9939 49.4237C23.9242 49.141 23.8361 48.8632 23.7301 48.592C23.1619 47.1383 21.9427 46.0291 19.5043 43.8107L17.8967 42.3481C13.0799 37.9658 10.6715 35.7747 11.3654 33.7114C12.0594 31.6481 15.3024 31.3577 21.7884 30.7768L22.5049 30.7126C26.468 30.3577 28.4495 30.1802 29.959 29.0579C31.4685 27.9356 32.2091 26.0892 33.6904 22.3963L33.8125 22.0919Z" stroke="#33363F" stroke-width="4"/>
</svg>
